<svg version="1.1" id="Layer_1" xmlns:x="ns_extend;" xmlns:i="ns_ai;" xmlns:graph="ns_graphs;" xmlns="http://www.w3.org/2000/svg" xmlns:xlink="http://www.w3.org/1999/xlink" x="0px" y="0px" viewBox="0 0 260.2 63" style="enable-background:new 0 0 260.2 63;" xml:space="preserve">
 <style type="text/css">
  .st0{fill:#1B365D;}
	.st1{fill:#FFB500;}
	.st2{fill:#AA4AC4;}
	.st3{fill:#00C1D5;}
 </style>
 <metadata>
  <sfw xmlns="ns_sfw;">
   <slices>
   </slices>
   <sliceSourceBounds bottomLeftOrigin="true" height="63" width="260.2" x="-55.8" y="-13.5">
   </sliceSourceBounds>
  </sfw>
 </metadata>
 <g>
  <g>
   <path class="st0" d="M84.3,40.4V14.2h16.3v4.2H88.7v7.4h10.7v4H88.7v10.5h-4.4V40.4z">
   </path>
   <path class="st0" d="M112.5,26.6c-0.5,0-0.9-0.2-1.4-0.2c-3.3,0-4.9,1.9-4.9,5.2v8.6H102V22.4h4.2v2.8c0.9-1.9,2.8-3.1,5.2-3.1
			c0.5,0,0.9,0,1.2,0.2v4.4L112.5,26.6z">
   </path>
   <path class="st0" d="M131.1,35.2c-0.9,3.1-3.8,5.8-8,5.8c-4.9,0-9.3-3.5-9.3-9.6c0-5.8,4.2-9.4,8.8-9.4c5.6,0,8.8,3.7,8.8,9.3
			c0,0.7,0,1.2-0.2,1.4h-13.1c0.2,2.8,2.3,4.7,4.9,4.7s3.8-1.4,4.5-3.1L131.1,35.2z M127,29.4c0-2.1-1.4-4-4.4-4
			c-2.6,0-4.2,2.1-4.4,4H127z">
   </path>
   <path class="st0" d="M152.1,37.1c0,1.6,0.2,3,0.2,3.3h-4c0-0.4-0.2-1.6-0.2-2.3c-0.9,1.6-2.8,2.8-5.2,2.8c-5.2,0-8.6-4-8.6-9.4
			c0-5.2,3.5-9.4,8.6-9.4c3.2,0,4.7,1.4,5.2,2.6v-11h4.2v23.4H152.1z M143.1,37.1c2.8,0,4.7-2.3,4.7-5.8s-1.9-5.6-4.7-5.6
			c-2.8,0-4.9,2.1-4.9,5.6S140.2,37.1,143.1,37.1z">
   </path>
   <path class="st0" d="M183.8,40.4V29.2h-12.2v11.2h-4.4V14.2h4.4V25h12.2V14.2h4.5v26.2H183.8z">
   </path>
   <path class="st0" d="M198.8,40.9c-4.2,0-6.8-3.1-6.8-7.2V22.4h4.2v10.5c0,2.3,1.1,4,3.7,4c2.4,0,3.8-1.6,3.8-4V22.2h4.2v14.7
			c0,1.4,0.2,2.6,0.2,3.3h-4c0-0.4-0.2-1.2-0.2-1.9C203,40.1,200.9,40.9,198.8,40.9z">
   </path>
   <path class="st0" d="M218,22.4h3.7v3.9H218v8.4c0,1.6,0.7,2.3,2.3,2.3c0.5,0,1.2-0.2,1.4-0.2v3.5c-0.2,0.2-1.1,0.4-2.6,0.4
			c-3.3,0-5.4-1.9-5.4-5.4v-8.9h-3.3v-3.8h0.9c1.9,0,2.8-1.2,2.8-2.8V17h3.8v5.4L218,22.4z">
   </path>
   <path class="st0" d="M227.8,31.3c0,3.7,2.3,5.6,5.1,5.6s4-1.9,4.6-3.3l3.8,1.4c-0.9,2.8-3.5,5.9-8.2,5.9c-5.2,0-9.3-4-9.3-9.6
			s4-9.4,9.3-9.4c4.9,0,7.5,3,8.2,5.9l-3.8,1.4c-0.4-1.6-1.6-3.3-4.4-3.3C230.1,25.7,227.8,27.8,227.8,31.3z">
   </path>
   <path class="st0" d="M248.5,40.4h-4.2V13.7h4.2v10.5c1.2-1.6,3.3-2.3,5.1-2.3c4.4,0,6.6,3.1,6.6,7.2v11.4H256V29.8
			c0-2.3-1.1-4-3.7-4c-2.4,0-3.7,1.8-3.7,4v10.7H248.5z">
   </path>
   <path class="st0" d="M82.8,55.5c0-4.7,3.5-7.5,7.2-7.5c3.7,0,5.8,2.1,6.5,4.7l-2.3,0.7c-0.3-1.8-1.8-3.2-4.2-3.2
			c-2.4,0-4.7,1.8-4.7,5.2c0,3.3,2.3,5.1,4.7,5.1c2.5,0,3.9-1.6,4.2-3.1l2.3,0.7c-0.7,2.5-2.8,4.7-6.5,4.7
			C86.1,63,82.8,60.2,82.8,55.5z">
   </path>
   <path class="st0" d="M100.6,57l2.4-0.4c0.5,0,0.7-0.3,0.7-0.7c0-0.9-0.5-1.6-1.9-1.6c-1.2,0-1.9,0.9-2.1,1.8l-2.1-0.5
			c0.2-1.8,1.8-3.1,4.2-3.1c3,0,4.2,1.8,4.2,3.7v4.9c0,0.9,0.2,1.4,0.2,1.6H104c0,0-0.2-0.5-0.2-1.2c-0.5,0.7-1.4,1.6-3,1.6
			c-2.1,0-3.3-1.4-3.3-3C97.7,58.3,99.1,57.2,100.6,57z M103.9,58.6v-0.5l-2.6,0.4c-0.7,0.2-1.4,0.5-1.4,1.4c0,0.7,0.5,1.2,1.4,1.2
			C102.7,61.1,103.9,60.6,103.9,58.6z">
   </path>
   <path class="st0" d="M110.9,62.6h-2.5v-9.8h2.3v1.4c0.7-1.1,1.8-1.6,3-1.6c2.5,0,3.5,1.8,3.5,3.9v6.3H115V57
			c0-1.2-0.5-2.3-2.1-2.3c-1.4,0-2.1,1-2.1,2.3v5.6H110.9z">
   </path>
   <path class="st0" d="M121.3,57.8c0,1.9,1.2,3.1,2.8,3.1s2.3-1,2.5-1.8l2.1,0.7c-0.5,1.4-2.1,3.2-4.7,3.2c-3,0-5.1-2.3-5.1-5.2
			c0-3,2.3-5.2,5.1-5.2c2.6,0,4.2,1.8,4.5,3.3l-2.1,0.7c-0.2-0.9-0.9-1.9-2.5-1.9C122.5,54.6,121.3,55.8,121.3,57.8z">
   </path>
   <path class="st0" d="M139.1,59.8c-0.5,1.8-2.1,3.2-4.4,3.2c-2.6,0-5.1-1.9-5.1-5.2c0-3.2,2.3-5.2,4.7-5.2c3,0,4.9,1.9,4.9,5.1v0.7
			h-7.2c0,1.6,1.2,2.6,2.6,2.6c1.4,0,2.1-0.7,2.4-1.8L139.1,59.8z M136.8,56.7c0-1.2-0.9-2.3-2.4-2.3c-1.4,0-2.3,1-2.5,2.3H136.8z">
   </path>
   <path class="st0" d="M147,55.1c-0.4,0-0.5,0-0.7,0c-1.8,0-2.6,1-2.6,3v4.7h-2.3V53h2.1v1.6c0.5-1,1.6-1.8,2.8-1.8h0.7L147,55.1z">
   </path>
   <path class="st0" d="M153.3,55.5c0-4.7,3.5-7.5,7.2-7.5c3.7,0,5.8,2.1,6.5,4.7l-2.3,0.7c-0.3-1.8-1.8-3.2-4.2-3.2
			s-4.7,1.8-4.7,5.2c0,3.3,2.3,5.1,4.7,5.1c2.4,0,3.8-1.6,4.2-3.1l2.3,0.7c-0.7,2.5-2.8,4.7-6.5,4.7C156.6,63,153.3,60.2,153.3,55.5
			z">
   </path>
   <path class="st0" d="M177.8,59.8c-0.5,1.8-2.1,3.2-4.4,3.2c-2.6,0-5.1-1.9-5.1-5.2c0-3.2,2.3-5.2,4.7-5.2c3,0,4.9,1.9,4.9,5.1v0.7
			h-7.2c0,1.6,1.2,2.6,2.6,2.6s2.1-0.7,2.5-1.8L177.8,59.8z M175.5,56.7c0-1.2-0.9-2.3-2.4-2.3c-1.4,0-2.3,1-2.4,2.3H175.5z">
   </path>
   <path class="st0" d="M182,62.6h-2.3v-9.8h2.3v1.4c0.7-1.1,1.8-1.6,3-1.6c2.4,0,3.5,1.8,3.5,3.9v6.3h-2.3V57c0-1.2-0.5-2.3-2.1-2.3
			c-1.4,0-2.1,1-2.1,2.3V62.6z">
   </path>
   <path class="st0" d="M193.7,52.8h2.1V55h-2.1v4.5c0,0.9,0.3,1.2,1.2,1.2h0.9v1.9c-0.2,0-0.5,0.2-1.4,0.2c-1.8,0-3-1-3-3v-4.9h-1.8
			v-2.1h0.5c1,0,1.6-0.7,1.6-1.6v-1.4h2.1v3H193.7z">
   </path>
   <path class="st0" d="M206.1,59.8c-0.5,1.8-2.1,3.2-4.4,3.2c-2.6,0-5.1-1.9-5.1-5.2c0-3.2,2.3-5.2,4.7-5.2c3,0,4.9,1.9,4.9,5.1v0.7
			h-7.2c0,1.6,1.2,2.6,2.6,2.6s2.1-0.7,2.5-1.8L206.1,59.8z M203.9,56.7c0-1.2-0.9-2.3-2.4-2.3c-1.4,0-2.3,1-2.4,2.3H203.9z">
   </path>
   <path class="st0" d="M213.8,55.1c-0.4,0-0.5,0-0.7,0c-1.8,0-2.6,1-2.6,3v4.7h-2.3V53h2.3v1.6c0.5-1,1.6-1.8,2.8-1.8h0.7v2.3H213.8
			z">
   </path>
  </g>
  <path class="st1" d="M47.9,6l-7,7c-1.4,1.4-3.5,1.4-4.9,0s-1.4-3.5,0-4.9l7-7c1.4-1.4,3.5-1.4,4.9,0S49.3,4.7,47.9,6z">
  </path>
  <path class="st2" d="M62,19.9l-7,7c-1.4,1.4-3.5,1.4-4.9,0c-1.4-1.4-1.4-3.5,0-4.9l7-7c1.4-1.4,3.5-1.4,4.9,0S63.3,18.5,62,19.9z">
  </path>
  <path class="st0" d="M62,6L39.6,28.5c-1.4,1.4-3.5,1.4-4.9,0c-1.4-1.4-1.4-3.5,0-4.9L57.1,1c1.4-1.4,3.5-1.4,4.9,0S63.3,4.5,62,6z">
  </path>
  <path class="st2" d="M19.9,19.9l-14,14c-1.4,1.4-3.5,1.4-4.9,0c-1.4-1.4-1.4-3.5,0-4.9l14-14c1.4-1.4,3.5-1.4,4.9,0
		S21.3,18.7,19.9,19.9z">
  </path>
  <path class="st0" d="M47.9,47.9l-14,14c-1.4,1.4-3.5,1.4-4.9,0c-1.4-1.4-1.4-3.5,0-4.9l14-14c1.4-1.4,3.5-1.4,4.9,0
		S49.3,46.6,47.9,47.9z">
  </path>
  <path class="st3" d="M28.4,39.5L6,62c-1.4,1.4-3.5,1.4-4.9,0s-1.4-3.5,0-4.9l22.4-22.4c1.4-1.4,3.5-1.4,4.9,0S29.8,38.2,28.4,39.5z
		">
  </path>
  <circle class="st1" cx="3.5" cy="17.5" r="3.5">
  </circle>
  <circle class="st3" cx="31.5" cy="3.5" r="3.5">
  </circle>
  <circle class="st3" cx="59.5" cy="31.5" r="3.5">
  </circle>
  <circle class="st2" cx="45.5" cy="59.5" r="3.5">
  </circle>
  <path class="st0" d="M12.9,40.9l-7,7c-1.4,1.4-3.5,1.4-4.9,0c-1.4-1.4-1.4-3.5,0-4.9l7-7c1.4-1.4,3.5-1.4,4.9,0
		S14.4,39.5,12.9,40.9z">
  </path>
  <path class="st1" d="M26.9,54.9l-7,7c-1.4,1.4-3.5,1.4-4.9,0s-1.4-3.5,0-4.9l7-7c1.4-1.4,3.5-1.4,4.9,0
		C28.4,51.5,28.3,53.6,26.9,54.9z">
  </path>
 </g>
</svg>